<svg xmlns="http://www.w3.org/2000/svg" width="22.803" height="22.803" viewBox="0 0 22.803 22.803"><defs><style>.a{fill:none;stroke:#626467;stroke-miterlimit:10;stroke-width:0.5px;}.b{fill:#626467;}</style></defs><g transform="translate(0.303 0.303)"><g transform="translate(0 0)"><circle class="a" cx="9.168" cy="9.168" r="9.168" transform="translate(0 17.801) rotate(-76.128)"/></g><g transform="translate(5.699 5.51)"><path class="b" d="M333.919,231.419a2.147,2.147,0,0,1,.858-.72,3.321,3.321,0,0,1,1.77-.319,3.477,3.477,0,0,1,.944.19,1.934,1.934,0,0,1,1.2,1.264,4.649,4.649,0,0,1,.226,1.493c.008,1.34.007,2.681.009,4.022,0,.141,0,.141-.14.141h-1.858c-.136,0-.136,0-.136-.134,0-1.14,0-2.28,0-3.42a2.487,2.487,0,0,0-.161-.923,1.09,1.09,0,0,0-.849-.758,1.4,1.4,0,0,0-1.627.94,2.92,2.92,0,0,0-.136.961c0,1.07,0,2.14,0,3.21,0,.122,0,.123-.119.123-.631,0-1.262,0-1.893,0-.085,0-.115-.025-.115-.115q0-3.4,0-6.8c0-.116,0-.116.116-.116.594,0,1.187,0,1.78,0,.09,0,.117.028.115.115,0,.249,0,.5,0,.75v.095Z" transform="translate(-328.122 -226.691)"/><path class="b" d="M328.928,233.965v-3.34c0-.032,0-.064,0-.1,0-.063.022-.088.087-.086.209,0,.419,0,.628,0,.436,0,.871,0,1.308,0,.082,0,.111.021.111.108q0,3.409,0,6.819c0,.085-.027.11-.11.11q-.958,0-1.918,0c-.1,0-.108-.044-.108-.122Q328.929,235.66,328.928,233.965Z" transform="translate(-328.662 -226.677)"/><path class="b" d="M330.031,229.917a1.33,1.33,0,1,1,1.331-1.322A1.338,1.338,0,0,1,330.031,229.917Z" transform="translate(-328.703 -227.258)"/></g></g></svg>