<svg xmlns="http://www.w3.org/2000/svg" xmlns:xlink="http://www.w3.org/1999/xlink" width="198.25" height="114.646" viewBox="0 0 198.25 114.646"><defs><style>.a{fill:#7c6c5c;}.b{fill:#004060;}.c{fill:url(#a);}.d{fill:url(#b);}.e{fill:#626467;}</style><linearGradient id="a" x1="0.5" x2="0.5" y2="1" gradientUnits="objectBoundingBox"><stop offset="0" stop-color="#c6c816"/><stop offset="0.333" stop-color="#67963b"/><stop offset="1" stop-color="#2c7652"/><stop offset="1" stop-color="#13685c"/><stop offset="1" stop-color="#c6c816"/></linearGradient><linearGradient id="b" x1="0.5" y1="0.34" x2="0.5" y2="1" gradientUnits="objectBoundingBox"><stop offset="0" stop-color="#c6c816"/><stop offset="1" stop-color="#13685c"/></linearGradient></defs><g transform="translate(125.957 0)"><path class="a" d="M211.865,183.169l0-65.51-16.378-16.377,0,98.265h0l16.378,16.377V183.169Z" transform="translate(-167.528 -101.281)"/><path class="b" d="M195.487,197.089l0-65.51L211.862,115.2l0,65.51Z" transform="translate(-167.528 -98.823)"/><g transform="translate(0 16.377)"><path class="c" d="M175.116,170.065l24.568,24.565V129.12l-24.566,24.568A11.581,11.581,0,0,0,175.116,170.065Z" transform="translate(-171.724 -112.742)"/><path class="d" d="M233.972,139.766,209.4,115.2l0,65.51,24.565-24.566A11.582,11.582,0,0,0,233.972,139.766Z" transform="translate(-165.07 -115.2)"/></g></g><g transform="translate(0 0.001)"><path class="b" d="M78.876,112.948H68.349v5.763h9.087c5.075,0,7.207,2.319,7.207,6.956v9.585H64.674v5.765H90.845V125.292c0-7.9-3.635-12.344-11.97-12.344" transform="translate(-64.674 -99.222)"/><path class="b" d="M75.122,109.128a3.415,3.415,0,0,0,0-6.83,3.415,3.415,0,0,0,0,6.83" transform="translate(-63.426 -101.103)"/><path class="b" d="M121.4,109.127a3.415,3.415,0,0,0,0-6.83,3.415,3.415,0,0,0,0,6.83" transform="translate(-55.253 -101.103)"/><path class="b" d="M145.312,102.3a3.415,3.415,0,0,0,0,6.829,3.415,3.415,0,0,0,0-6.829" transform="translate(-51.03 -101.104)"/><path class="b" d="M150.868,137.311H137.895V115.006H124.424c-8.46,0-12.154,4.7-12.154,12.72v9.586h-8.586c-3.005,0-4.384-1.253-4.384-4.511V101.286h-6.2v30.826c0,7.646,2.57,10.966,10.9,10.966h53.011v-28.07h-6.141v22.305m-19.238,0H118.472V128.29c0-5.015,2.131-7.52,7.269-7.52h5.89Z" transform="translate(-59.655 -101.282)"/><rect class="b" width="6.203" height="41.795" transform="translate(105.876)"/><path class="b" d="M160.861,140.04l-6.2,5.792v5.533l6.2-5.792V140.04" transform="translate(-48.782 -94.438)"/><g transform="translate(0.001 48.206)"><path class="a" d="M85.071,152.864H74.32v21.5h4.95V156.9h5.022c3.351,0,4.717,1.366,4.717,4.719v12.744h4.951V161.751c0-6.145-2.743-8.888-8.89-8.887" transform="translate(-62.971 -140.379)"/><path class="a" d="M97.366,152.566v1.467h-3.38v3.955h3.38v17.548h4.95V157.988h6.544v-3.955h-6.544V152.7c0-1.885.668-2.551,2.553-2.551h4.164v-3.911H103.7c-4.5,0-6.333,1.836-6.333,6.331" transform="translate(-59.498 -141.549)"/><path class="a" d="M119.046,152.863H108.987v3.955h9.972c2.587,0,3.462.882,3.462,3.505v.514h-7.969c-4.235,0-6.765,2.529-6.765,6.767s2.531,6.763,6.767,6.763h12.918V161.189c0-5.914-2.411-8.326-8.325-8.326m3.418,11.884v5.71h-6.886a2.855,2.855,0,0,1,0-5.71Z" transform="translate(-57.078 -140.379)"/><path class="a" d="M135.069,148.148h-4.952v5.547h-3.378v3.953h3.378v11.218c0,4.5,1.834,6.33,6.333,6.33h5.9v-3.952h-4.729c-1.883,0-2.551-.668-2.551-2.551V157.649h7.366v-3.955h-7.366v-5.547" transform="translate(-53.713 -141.211)"/><path class="a" d="M153.99,154.033h-5.8v-7.8h-4.95v29.3h4.95V158.072h5.023c3.349,0,4.717,1.366,4.718,4.719v12.744h4.95V162.921c0-6.147-2.741-8.888-8.888-8.888" transform="translate(-50.799 -141.549)"/><rect class="a" width="4.984" height="21.465" transform="translate(0.001 12.523)"/><path class="a" d="M69.7,142.253l-5.021,4.687v4.8l5.021-4.687v-4.8" transform="translate(-64.675 -142.253)"/></g><g transform="translate(0.002 92.455)"><path class="e" d="M71.508,188.635a.71.71,0,0,0-.691.715.7.7,0,0,0,.691.678.693.693,0,0,0,.691-.678.7.7,0,0,0-.691-.715" transform="translate(-63.591 -178.31)"/><path class="e" d="M73.024,188.635a.7.7,0,1,0,0,1.393.7.7,0,0,0,.689-.678.709.709,0,0,0-.689-.715" transform="translate(-63.328 -178.31)"/><path class="e" d="M66.475,182.3a.7.7,0,0,0,0-1.394.7.7,0,0,0,0,1.394" transform="translate(-64.48 -179.675)"/><path class="e" d="M67.99,182.3a.7.7,0,0,0,0-1.394.7.7,0,1,0,0,1.394" transform="translate(-64.217 -179.675)"/><rect class="e" width="1.266" height="5.359" transform="translate(77.162 2.035)"/><path class="e" d="M77.5,182.311a.7.7,0,0,0,0-1.4.7.7,0,0,0,0,1.4" transform="translate(-62.534 -179.674)"/><path class="e" d="M141.882,182.309a.7.7,0,0,0,0-1.394.7.7,0,0,0,0,1.394" transform="translate(-51.163 -179.674)"/><path class="e" d="M118.37,182.31a.7.7,0,0,0,0-1.4.7.7,0,0,0,0,1.4" transform="translate(-55.315 -179.674)"/><path class="e" d="M91.542,182.3a.7.7,0,0,0,0-1.394.7.7,0,0,0,0,1.394" transform="translate(-60.053 -179.675)"/><path class="e" d="M93.057,182.3a.7.7,0,0,0,0-1.394.7.7,0,1,0,0,1.394" transform="translate(-59.79 -179.675)"/><rect class="e" width="1.267" height="8.531" transform="translate(83.556 0.998)"/><path class="e" d="M149.891,183.659h-3.4l3.658-2.43v-1.37l-3.876,2.6c-1.048.7-1.393,1.126-1.393,1.867v.512H149.6c1.035,0,1.471.473,1.471,1.419v1.957h-8.21v-4.553H141.59v5.7c0,.92-.4,1.6-1.407,1.6H139.8v1.2h.486c1.765,0,2.557-1.05,2.571-2.776h9.476v-3.211c0-1.612-.741-2.519-2.443-2.519" transform="translate(-51.408 -179.86)"/><path class="e" d="M133.958,186.838a1.068,1.068,0,0,1-1.19,1.227h-4.284v1.177h4.373a2.207,2.207,0,0,0,2.366-2.4V180.7h-1.266v6.14" transform="translate(-53.407 -179.712)"/><path class="e" d="M130.8,190.273c0-.345.114-.524.472-.524H132v-.627h-.717c-.806,0-1.138.332-1.138,1.126v.691h-.588v.626h2.621v-.626H130.8v-.666" transform="translate(-53.217 -178.224)"/><path class="e" d="M159.056,183.089h-2.75v4.552h-2.418v-4.552h-1.266v5.7c0,.92-.4,1.6-1.406,1.6h-.384v1.2h.486c1.765,0,2.558-1.048,2.57-2.774h7.649v-3.134c0-1.637-.755-2.6-2.481-2.6m1.2,4.552h-2.686v-3.376h1.2c1.048,0,1.484.511,1.484,1.534Z" transform="translate(-49.46 -179.29)"/><rect class="e" width="1.267" height="8.531" transform="translate(38.779 1)"/><path class="e" d="M128.453,188.063h-1.778v-4.144h-1.266v4.144h-1.777v-4.144h-1.267v4.143h-2.774v-4.552h-1.253v4.552h-1.931c-.614,0-.9-.255-.9-.92v-6.434h-1.265V187c0,1.56.525,2.239,2.225,2.239h13.25v-5.73h-1.266v4.553" transform="translate(-55.922 -179.71)"/><path class="e" d="M100.308,185.686v3.134h3.952c0,1.112-.281,1.6-1.394,1.6H101.19V191.6h1.88c1.957,0,2.456-1.228,2.469-3.032V183.09h-2.75c-1.726,0-2.481.959-2.481,2.6m3.952-1.419v3.377h-2.686V185.8c0-1.024.435-1.534,1.484-1.534Z" transform="translate(-58.383 -179.29)"/><path class="e" d="M100.449,188.064H97.6V183.51H96.343v4.553H93.3v-2.033c0-1.612-.742-2.519-2.443-2.519H84.628v4.552H82.109v-4.552H79.358c-1.726,0-2.48.959-2.48,2.6v1.957H74.191v-4.552H72.938v4.553H69.907v-4.553H67.157c-1.727,0-2.481.959-2.481,2.6v3.135h37.04v-8.53h-1.267v7.354m-31.82,0H65.942v-1.843c0-1.024.435-1.534,1.484-1.534h1.2Zm12.2,0H78.143v-1.841c0-1.024.435-1.534,1.484-1.534h1.2Zm11.2,0H85.895v-3.376h4.669c1.035,0,1.471.473,1.471,1.42Z" transform="translate(-64.676 -179.71)"/><path class="e" d="M111.37,183.09h-2.15v1.177h1.856c1.035,0,1.47.473,1.47,1.419v1.957h-4.258v1.177h5.525v-3.211c0-1.612-.742-2.519-2.443-2.519" transform="translate(-56.974 -179.29)"/><g transform="translate(0 16.525)"><path class="e" d="M66.847,198.47c-1.484,0-2.171-.728-2.171-2.28s.687-2.281,2.171-2.281h1.244v.64H66.985c-1.031,0-1.423.4-1.5,1.3h2.55v.64H65.473c.062.927.481,1.34,1.512,1.339h1.168v.646Z" transform="translate(-64.676 -193.905)"/><path class="e" d="M70.719,196.3c0-.551-.227-.777-.777-.777h-.825v2.769h-.728v-3.353h1.677c.962,0,1.381.419,1.381,1.381v1.972h-.728Z" transform="translate(-64.02 -193.723)"/><path class="e" d="M73.036,198.42c-.694,0-.975-.281-.975-.975v-1.807h-.537v-.571h.537v-.879h.728v.879h1.168v.571H72.789v1.78c0,.315.117.433.433.433h.721v.569Z" transform="translate(-63.467 -193.855)"/><path class="e" d="M75.507,194.935c.742,0,1.066.324,1.066,1.065v.42h-.728v-.365c0-.371-.166-.535-.537-.535h-.44v2.769H74.14v-3.353Z" transform="translate(-63.005 -193.723)"/><path class="e" d="M78.16,198.288c-.962,0-1.381-.419-1.381-1.381v-1.972h.728v1.993c0,.549.227.777.777.777h.791v-2.77H79.8v3.353Z" transform="translate(-62.538 -193.723)"/><path class="e" d="M81.675,197.718c.288,0,.426-.131.426-.412s-.138-.413-.426-.413h-.639a.979.979,0,1,1,0-1.958h1.648v.571H81.22c-.288,0-.433.116-.432.4s.144.413.432.413h.633a.982.982,0,1,1,0,1.965H80.025v-.571Z" transform="translate(-61.965 -193.723)"/><path class="e" d="M84.34,198.42c-.694,0-.977-.281-.977-.975v-1.807h-.535v-.571h.535v-.88h.728v.88H85.26v.571H84.092v1.779c0,.317.118.433.433.433h.721v.571Z" transform="translate(-61.47 -193.855)"/><path class="e" d="M89.347,196.275c0-.537-.22-.757-.757-.757h-.474v2.77h-.728v-2.77H86.171v2.77h-.728v-3.353h3.251c.962,0,1.381.419,1.381,1.381v1.972h-.728Z" transform="translate(-61.008 -193.723)"/><path class="e" d="M91.674,198.288a1.677,1.677,0,0,1,0-3.353H92.74v.569h-1c-.646,0-.955.248-1,.8H92.7v.557H90.747c.014.537.281.859,1,.859h1.024v.571Z" transform="translate(-60.204 -193.723)"/><path class="e" d="M95.433,196.3c0-.549-.226-.777-.777-.777h-.824v2.77H93.1v-3.353h1.675c.962,0,1.381.42,1.381,1.381v1.973h-.728Z" transform="translate(-59.655 -193.723)"/><path class="e" d="M97.751,198.42c-.694,0-.977-.282-.977-.977v-1.807h-.535v-.571h.535v-.879H97.5v.879h1.168v.571H97.5v1.78c0,.317.118.433.433.433h.721v.571Z" transform="translate(-59.102 -193.855)"/><path class="e" d="M101.038,198.289a1.045,1.045,0,1,1,0-2.09h1.291v-.109c0-.427-.151-.585-.577-.585H100.2v-.571h1.567c.92,0,1.291.372,1.292,1.292v2.061Zm.178-1.526a.481.481,0,1,0,0,.962h1.12v-.962Z" transform="translate(-58.439 -193.723)"/><path class="e" d="M105.732,196.3c0-.551-.226-.777-.777-.777h-.824v2.769h-.73v-3.353h1.678c.961,0,1.38.419,1.38,1.381v1.972h-.729Z" transform="translate(-57.837 -193.723)"/><path class="e" d="M108.3,198.469a1.677,1.677,0,0,1,0-3.353h.782v-1.21h.73v4.563Zm.179-2.783c-.771,0-1.107.336-1.107,1.106s.337,1.107,1.107,1.107h.6v-2.213Z" transform="translate(-57.268 -193.905)"/><path class="e" d="M113.248,198.469a1.511,1.511,0,0,1-1.718-1.718v-2.845h.741v2.763c0,.839.315,1.154,1.154,1.154h1.1v.646Z" transform="translate(-56.401 -193.905)"/><path class="e" d="M115.364,193.906v.8h-.728v-.8Zm0,1.21v3.353h-.728v-3.353Z" transform="translate(-55.853 -193.905)"/><path class="e" d="M117.586,198.287a1.677,1.677,0,1,1,0-3.353H119.1v4.452h-.729v-1.1Zm.178-2.783c-.77,0-1.106.336-1.106,1.106s.337,1.106,1.107,1.106h.6V195.5Z" transform="translate(-55.628 -193.723)"/><path class="e" d="M120.8,198.287c-.961,0-1.381-.419-1.381-1.381v-1.972h.728v1.993c0,.549.227.777.777.777h.791v-2.77h.728v3.353Z" transform="translate(-55.007 -193.723)"/><path class="e" d="M123.561,193.906v.8h-.728v-.8Zm0,1.21v3.353h-.728v-3.353Z" transform="translate(-54.405 -193.905)"/><path class="e" d="M125.783,198.469a1.677,1.677,0,1,1,0-3.353h.784v-1.21h.728v4.563Zm.179-2.783c-.77,0-1.107.336-1.107,1.106s.338,1.106,1.107,1.106h.6v-2.213Z" transform="translate(-54.18 -193.905)"/><path class="e" d="M128.537,198.287a1.045,1.045,0,1,1,0-2.09h1.292v-.109c0-.426-.152-.585-.578-.585H127.7v-.569h1.567c.921,0,1.292.371,1.292,1.292v2.061Zm.179-1.526a.481.481,0,1,0,0,.962h1.12v-.962Z" transform="translate(-53.582 -193.723)"/><path class="e" d="M132.145,198.419c-.694,0-.975-.282-.975-.977v-1.807h-.537v-.569h.537v-.879h.728v.879h1.168v.571H131.9v1.78c0,.316.117.433.433.433h.721v.571Z" transform="translate(-53.027 -193.855)"/><path class="e" d="M133.977,193.906v.8h-.728v-.8Zm0,1.208v3.355h-.728v-3.355Z" transform="translate(-52.565 -193.905)"/><path class="e" d="M136.267,198.358a1.738,1.738,0,1,1,1.746-1.739A1.556,1.556,0,0,1,136.267,198.358Zm1-1.739c0-.77-.331-1.154-1-1.154s-1,.385-1,1.154.329,1.155,1,1.155S137.271,197.39,137.271,196.619Z" transform="translate(-52.34 -193.733)"/><path class="e" d="M140.471,196.294c0-.551-.226-.777-.777-.777h-.824v2.769h-.728v-3.353h1.678c.961,0,1.38.42,1.38,1.381v1.972h-.728Z" transform="translate(-51.701 -193.723)"/><path class="e" d="M144.872,198.468c-1.464,0-2.165-.721-2.165-2.281s.7-2.281,2.165-2.281h1.3v.639H145.03c-1.133,0-1.539.474-1.539,1.642s.406,1.636,1.539,1.636h1.161v.646Z" transform="translate(-50.895 -193.905)"/><path class="e" d="M147.765,198.286a1.677,1.677,0,1,1,0-3.353h1.065v.571h-1c-.646,0-.955.247-1,.8H148.8v.557h-1.959c.014.537.282.86,1,.86h1.024v.569Z" transform="translate(-50.298 -193.723)"/><path class="e" d="M151.524,196.293c0-.549-.227-.775-.777-.775h-.825v2.769h-.728v-3.353h1.677c.962,0,1.381.419,1.381,1.381v1.972h-.728Z" transform="translate(-49.749 -193.723)"/><path class="e" d="M153.841,198.418c-.694,0-.975-.281-.975-.975v-1.807h-.537v-.571h.537v-.88h.728v.88h1.168v.571h-1.168v1.779c0,.316.116.433.433.433h.721v.571Z" transform="translate(-49.196 -193.856)"/><path class="e" d="M156.435,198.286a1.677,1.677,0,1,1,0-3.353H157.5v.571h-1c-.646,0-.954.247-1,.8h1.959v.557h-1.959c.014.537.282.859,1,.859h1.025v.571Z" transform="translate(-48.767 -193.723)"/><path class="e" d="M159.231,194.933c.742,0,1.065.322,1.065,1.065v.419h-.728v-.364c0-.372-.165-.536-.535-.536h-.44v2.77h-.728v-3.353Z" transform="translate(-48.218 -193.723)"/></g></g></g></svg>