<svg xmlns="http://www.w3.org/2000/svg" width="22.803" height="22.803" viewBox="0 0 22.803 22.803"><defs><style>.a{fill:#626467;fill-rule:evenodd;}.b{fill:none;stroke:#626467;stroke-miterlimit:10;stroke-width:0.5px;}</style></defs><g transform="translate(0.303 0.303)"><path class="a" d="M356.5,226.464a5.344,5.344,0,0,1,1.885,2.079,7.374,7.374,0,0,1,.37.8h.012a24.452,24.452,0,0,1,2.574.407,6.738,6.738,0,0,0-4.841-3.288Zm5.062,3.7a6.69,6.69,0,0,1,.676,2.768h-2.834a10.53,10.53,0,0,0-.513-3.22,23.459,23.459,0,0,1,2.671.452Zm.676,3.125h-2.834a10.517,10.517,0,0,1-.513,3.219,23.157,23.157,0,0,0,2.671-.451,6.69,6.69,0,0,0,.676-2.768Zm-.9,3.183a6.732,6.732,0,0,1-4.841,3.29,5.343,5.343,0,0,0,1.885-2.079,7.371,7.371,0,0,0,.37-.8h.012a24.114,24.114,0,0,0,2.574-.408Zm-5.815,3.718h-.014a7.079,7.079,0,0,1,0-14.159h.014a7.079,7.079,0,0,1,0,14.159Zm-.988-.428a5.344,5.344,0,0,1-1.885-2.079,7.158,7.158,0,0,1-.37-.8h-.012a24.117,24.117,0,0,1-2.574-.408,6.732,6.732,0,0,0,4.841,3.29Zm-5.062-3.7a23.159,23.159,0,0,0,2.671.451,10.515,10.515,0,0,1-.513-3.219H348.8a6.689,6.689,0,0,0,.676,2.768Zm-.676-3.125h2.834a10.529,10.529,0,0,1,.513-3.22,23.459,23.459,0,0,0-2.671.452,6.69,6.69,0,0,0-.676,2.768Zm.9-3.184a24.456,24.456,0,0,1,2.574-.407h.012a7.16,7.16,0,0,1,.37-.8,5.344,5.344,0,0,1,1.885-2.079,6.738,6.738,0,0,0-4.841,3.288Zm2.841,6.8c.89.087,1.83.136,2.8.142v-3.4h-3.351a10.058,10.058,0,0,0,.549,3.261Zm3.159.142v-3.4h3.351a10.027,10.027,0,0,1-.55,3.261c-.889.087-1.829.136-2.8.142Zm2.657.229c-.851.078-1.742.123-2.657.128v2.714a4.677,4.677,0,0,0,2.374-2.248c.1-.188.2-.387.283-.594Zm-3.014.128c-.915,0-1.807-.05-2.657-.128.086.207.182.406.283.594a4.677,4.677,0,0,0,2.374,2.248v-2.714Zm3.158-7.378a10.027,10.027,0,0,1,.55,3.261H355.7v-3.4c.972.006,1.912.054,2.8.142Zm-3.158-.142c-.972.006-1.912.054-2.8.142a10.058,10.058,0,0,0-.549,3.261h3.351v-3.4Zm-2.657-.229c.85-.079,1.742-.123,2.657-.128v-2.714a4.672,4.672,0,0,0-2.374,2.248c-.1.188-.2.387-.283.594Zm3.014-.128v-2.714a4.672,4.672,0,0,1,2.374,2.248c.1.188.2.387.283.594C357.508,229.225,356.617,229.181,355.7,229.177Z" transform="translate(-344.691 -221.798)"/><g transform="translate(0 0)"><circle class="b" cx="9.168" cy="9.168" r="9.168" transform="translate(0 17.801) rotate(-76.128)"/></g></g></svg>